<?xml version="1.0" encoding="utf-8"?>
<!-- Generator: Adobe Illustrator 25.4.1, SVG Export Plug-In . SVG Version: 6.00 Build 0)  -->
<svg version="1.1" id="Layer_1" xmlns="http://www.w3.org/2000/svg" xmlns:xlink="http://www.w3.org/1999/xlink" x="0px" y="0px"
	 viewBox="0 0 347 404" style="enable-background:new 0 0 347 404;" xml:space="preserve">
<style type="text/css">
	.st0{fill:none;stroke:#000000;stroke-miterlimit:10;}
</style>
<g transform="translate(0.000000,404.000000) scale(0.100000,-0.100000)">
	<path class="st0" d="M0,2020V0h503h502l-3,351l-3,351l53-7c29-4,62-11,74-15c11-5,46-11,77-15c49-6,57-5,57,9c0,9-7,16-15,16
		c-13,0-15,26-15,170v170h-49c-42,0-53,4-71,27c-15,19-21,39-19,68c1,22-1,47-5,55c-3,8-7,94-8,190l-3,175l-30,5l-30,5v75v75l100,10
		l100,10l3,31c2,24-2,33-23,42c-21,10-25,18-25,51v40l-52,5c-29,3-107,8-173,12c-66,3-123,10-126,16c-4,5-9,62-13,126
		c-4,65-11,167-16,227c-5,61-16,211-25,335s-18,249-21,278l-5,52h-39c-44,0-43-3-64,120c-31,180-79,411-117,566
		c-21,88-39,179-39,202v42h53c28,0,214-11,412-25s448-30,555-36l195-11l115-51c243-108,514-259,740-415c188-129,518-396,543-438
		c4-8,7-36,5-62l-3-47h-60c-157,1-347,18-352,31c-3,8,1,52,9,99l14,85l-146,108c-202,151-254,186-425,289c-125,74-364,203-377,203
		c-2,0-5-35-6-77c-1-43-9-177-17-298s-21-328-30-460c-18-279-32-483-45-647c-6-64-10-138-10-165v-48l215,3l215,3v-275
		c0-226,2-276,14-276c20,0,26-88,26-386V711l49-7c27-3,55-10,62-15c16-9,16-1,4-412l-8-277h622h621v2020v2020H1735H0V2020z
		 M1996,3139c123-21,236-67,329-134c84-59,195-179,246-265l42-72l-12-112c-7-61-25-201-39-311l-27-200l-215-6c-118-4-305-10-414-14
		l-199-7l7,119c8,144,23,364,36,538c5,72,15,204,21,295s13,168,16,173C1793,3154,1927,3152,1996,3139z"/>
	<path class="st0" d="M1840,3043c0-15-4-90-10-167c-5-78-12-170-14-206l-5-65l21,40c31,59,72,108,117,139c64,45,151,56,151,20
		c0-11,16-14,73-14c97,0,162-30,211-97c41-57,56-108,56-196c0-135-63-252-165-304c-16-8-37-24-46-35c-8-10-40-25-70-33l-54-13h100
		c55,0,132,3,170,7l70,6l17,125c9,69,24,182,33,253l17,127l-28,48c-85,146-226,275-369,335c-64,27-194,57-245,57
		C1844,3070,1840,3066,1840,3043z"/>
	<path class="st0" d="M2072,2714c-118-58-193-212-158-326c20-69,69-133,119-157c56-27,90-26,155,4c30,14,60,25,66,25
		c21,0,84,70,107,118c48,98,34,202-37,281C2247,2745,2168,2762,2072,2714z"/>
	<path class="st0" d="M1787,2266c-4-44-7-99-7-123v-43h98c76,1,93,3,78,12c-19,11-37,28-100,98c-16,17-37,55-46,83l-17,51L1787,2266
		z"/>
	<path class="st0" d="M535,3798c2-13,18-81,36-153c34-145,129-620,129-647c0-11,8-18,20-18c18,0,20,5,15,33c-9,52-35,433-35,513
		c0,79,15,107,24,47c7-48,33-330,41-448c3-49,10-139,15-200c16-179,39-475,55-710c9-121,18-229,20-241c4-19,15-21,202-32
		c109-6,274-18,367-27c93-8,170-14,171-12c1,1,12,146,24,322s26,374,31,440s12,158,15,205s15,218,26,380s22,318,24,345
		c3,47,5,50,33,53c69,7,524-254,810-465c40-30,78-51,84-47s8,3,5-3c-8-13,75-83,97-83c17,0,22-30,7-45c-5-6-11-42-15-81l-6-72l63-6
		c34-3,106-8,160-12c92-6,99-5,95,12c-1,10-53,61-114,113c-314,271-663,502-1019,676c-207,100-215,103-215,76c0-12-7-21-15-21
		c-9,0-15,9-15,25c0,14-6,27-12,30c-7,2-161,13-343,25c-181,11-413,27-515,35s-204,15-228,15C533,3820,530,3818,535,3798z M705,3778
		c23-10,27-16,24-34c-2-15,30-24,86-24c33,0,89-4,125-9s104-12,153-16c63-5,87-10,87-20c0-15-24-15-311,6c-74,5-146,9-158,9
		c-21,0-23,3-17,34c6,33,6,34-34,40c-22,3-40,11-40,16C620,3794,673,3793,705,3778z M1040,3151c25-5,39-9,32-10c-7,0-10-5-7-11
		c4-6-21-10-67-10h-73l-2-394l-1-394l44-6c141-19,141-19,109-27c-16-4-67-7-112-8l-83-1v135c0,74,4,135,9,135s7,33,4,73
		c-3,39-6,174-8,300l-4,227l57-1C969,3159,1015,3155,1040,3151z M1252,2553c23-21,25-95,2-117c-10-11-34-16-70-16c-50,0-54,2-54,24
		c0,13,7,29,15,36c17,14,20,40,5,40c-5,0-10,11-10,25c0,23,4,25,47,25C1216,2570,1240,2564,1252,2553z M1372,2233c43-5,46-7,50-38
		c2-18,2-66,0-105l-4-72l-96,7c-161,12-187,18-185,40c2,11,3,58,4,104l1,83l91-6C1284,2242,1346,2236,1372,2233z"/>
	<path class="st0" d="M1202,2193c-34-3-42-8-38-19c3-9,6-33,6-54v-38l103-8c118-10,120-10,115,69l-3,52l-70,1
		C1277,2196,1225,2195,1202,2193z"/>
	<path class="st0" d="M1220,1870c0-14,11-23,41-31c24-8,44-21,49-33c9-21,9-21,9-1c1,18,7,20,46,17l46-4l-3-253c-2-202,0-251,10-243
		c8,7,12,42,12,107c0,53,3,113,6,134c9,49,34,50,34,2c0-28,4-35,20-35c18,0,20-7,20-61c0-43,5-69,19-87c10-15,28-46,40-69
		c18-36,26-43,50-43c25,0,34,9,70,69c27,46,41,81,41,105v35l-92,3l-93,3v39c0,47,20,59,28,16l7-30h73c43,0,78,5,85,12
		c8,8,12,57,12,154c0,134,1,143,20,149c11,3,20,13,20,22c0,12-16,14-97,12c-54-1-163,5-243,14C1250,1896,1220,1895,1220,1870z"/>
	<path class="st0" d="M1870,1591c0-260-1-270-20-284c-17-12-19-19-11-41c7-17,7-26,1-26s-10-99-10-262c0-145-4-270-10-278
		c-6-10-3-20,9-32c16-14,30-15,86-10c67,7,69,8,81,42l12,35l7-32c5-23,13-33,26-33c18,0,19,12,20,218c0,119,2,243,2,274l2,58l-45,2
		c-25,1-61,1-80,0c-71-5-93,13-67,55c4,6,5,18,1,26c-3,8,1,21,9,29c12,11,16,66,20,271c5,248,4,257-14,257S1870,1849,1870,1591z"/>
	<path class="st0" d="M1945,1839c-4-6-8-126-9-267c-1-186-5-263-14-279c-12-22-11-23,28-23c33,0,40,3,40,20c0,11-5,20-12,20
		c-8,0-9,42-5,161c5,106,4,158-3,154c-6-4-10,7-9,27c0,27,2,30,9,13c7-16,9-11,9,20s-2,36-9,20c-7-17-9-16-11,10c-1,17-1,54,1,83
		C1962,1849,1958,1861,1945,1839z"/>
	<path class="st0" d="M1800,1637c0-79-4-147-9-152c-5-6-11-37-13-70c-4-48-13-73-45-125l-40-65l-70-3c-70-3-71-3-92,30l-22,33l6-60
		c3-33,2-148-3-255c-4-107-6-203-4-212c4-16,19-18,133-18h129v243c0,303,6,374,31,380c18,5,19,19,19,211c0,131-4,206-10,206
		S1800,1726,1800,1637z"/>
	<path class="st0" d="M1062,1628c2-15,13-25,35-31l32-10l5-181c7-279,15-326,56-326c14,0,18,14,24,93c4,50,8,101,7,112
		c0,11,4,49,10,85c5,36,10,112,12,170l2,105l-93,3C1060,1651,1059,1650,1062,1628z"/>
	<path class="st0" d="M1288,1215c-6-97-12-382-9-457c1-10,8-18,16-18c18,0,27-34,23-86l-3-39h-98h-97l2-295l3-295l65-7
		c36-4,196-10,357-14l292-7l6,34c3,19,5,153,3,299l-3,265l-69-3c-37-2-66,0-63,5c3,4-69,8-158,8c-117,0-168,4-176,12c-7,7-9,16-5,20
		c4,5,95,8,201,9c149,0,198,4,210,14c16,13,16,15-2,21c-10,4-89,8-176,8c-158,1-158,1-157,24c4,45,0,77-10,77c-6,0-9-5-8-12
		c2-6-5-14-15-16c-16-3-18,2-15,34c2,31,8,39,28,44c25,6,25,8,28,113l3,107l-33,2c-18,1-54,0-80-1l-47-3l-3,139l-3,138L1288,1215z"
		/>
	<path class="st0" d="M1038,358c-3-276,2-358,21-358c14,0,8,643-6,647C1044,650,1041,578,1038,358z"/>
	<path class="st0" d="M1900,226V0h140c127,0,140,2,150,19c5,11,10,86,10,170c0,122-3,151-14,151c-8,0-16-7-20-15
		c-12-31-156-12-156,21c0,7-10,14-22,16s-37,22-55,46l-33,44V226z"/>
</g>
</svg>
